<svg width="36" height="36" viewBox="0 0 36 36" fill="none" xmlns="http://www.w3.org/2000/svg">
<path d="M1.58824 36C1.13824 36 0.761032 35.7703 0.456619 35.3109C0.152206 34.8514 0 34.2822 0 33.6031C0 32.9239 0.152206 32.355 0.456619 31.8963C0.761032 31.4376 1.13824 31.2083 1.58824 31.2083H34.4118C34.8618 31.2083 35.239 31.438 35.5434 31.8974C35.8478 32.3568 36 32.926 36 33.6052C36 34.2843 35.8478 34.8532 35.5434 35.3119C35.239 35.7706 34.8618 36 34.4118 36H1.58824ZM1.58824 20.3958C1.13824 20.3958 0.761032 20.1661 0.456619 19.7068C0.152206 19.2473 0 18.6781 0 17.999C0 17.3198 0.152206 16.7509 0.456619 16.2922C0.761032 15.8335 1.13824 15.6042 1.58824 15.6042H34.4118C34.8618 15.6042 35.239 15.8339 35.5434 16.2932C35.8478 16.7527 36 17.3219 36 18.001C36 18.6802 35.8478 19.2491 35.5434 19.7078C35.239 20.1665 34.8618 20.3958 34.4118 20.3958H1.58824ZM1.58824 4.79174C1.13824 4.79174 0.761032 4.56203 0.456619 4.1026C0.152206 3.64322 0 3.07395 0 2.39479C0 1.71568 0.152206 1.14679 0.456619 0.688103C0.761032 0.229366 1.13824 0 1.58824 0H34.4118C34.8618 0 35.239 0.229712 35.5434 0.689141C35.8478 1.14857 36 1.71784 36 2.39695C36 3.07611 35.8478 3.64503 35.5434 4.10371C35.239 4.5624 34.8618 4.79174 34.4118 4.79174H1.58824Z" fill="#333D4B"/>
</svg>
