<?xml version="1.0" encoding="utf-8"?>
<!-- Generator: Adobe Illustrator 11.0, SVG Export Plug-In  -->
<!DOCTYPE svg PUBLIC "-//W3C//DTD SVG 1.0//EN"    "http://www.w3.org/TR/2001/REC-SVG-20010904/DTD/svg10.dtd" [
	<!ENTITY ns_flows "http://ns.adobe.com/Flows/1.0/">
	<!ENTITY ns_svg "http://www.w3.org/2000/svg">
	<!ENTITY ns_xlink "http://www.w3.org/1999/xlink">
]>
<svg  xmlns="&ns_svg;" xmlns:xlink="&ns_xlink;" xmlns:a="http://ns.adobe.com/AdobeSVGViewerExtensions/3.0/"
	 width="19" height="17" viewBox="-0.156 -0.092 19 17" xml:space="preserve">
	<defs>
	</defs>
	<g>
		<path display="none" fill="#333D4B" d="M9,16.004l-0.758-0.685c-1.632-1.491-2.982-2.767-4.05-3.829
			C3.125,10.43,2.281,9.492,1.664,8.682C1.045,7.871,0.613,7.137,0.368,6.48S0,5.164,0,4.5c0-1.272,0.432-2.339,1.296-3.204
			S3.229,0,4.5,0c0.879,0,1.705,0.225,2.475,0.675C7.746,1.125,8.42,1.78,9,2.639c0.58-0.859,1.254-1.514,2.025-1.963
			C11.795,0.225,12.621,0,13.5,0c1.271,0,2.34,0.432,3.204,1.296S18,3.228,18,4.5c0,0.664-0.123,1.324-0.368,1.98
			s-0.677,1.391-1.296,2.201c-0.617,0.811-1.457,1.748-2.519,2.809c-1.062,1.063-2.415,2.338-4.06,3.829L9,16.004z M9,14.65
			c1.6-1.446,2.916-2.686,3.95-3.717c1.033-1.031,1.85-1.926,2.45-2.685c0.6-0.759,1.016-1.431,1.25-2.015
			C16.883,5.648,17,5.07,17,4.5c0-1-0.334-1.833-1-2.5s-1.5-1-2.5-1c-0.796,0-1.531,0.227-2.204,0.682s-1.275,1.139-1.808,2.053
			H8.512C7.967,2.808,7.361,2.12,6.694,1.672C6.027,1.224,5.296,1,4.5,1C3.513,1,2.683,1.333,2.01,2C1.336,2.667,1,3.5,1,4.5
			c0,0.57,0.117,1.148,0.35,1.734C1.584,6.818,2,7.49,2.6,8.249C3.2,9.008,4.017,9.898,5.05,10.924C6.084,11.949,7.4,13.191,9,14.65
			z"/>
		<path fill="#F43160" d="M9,16.035l-0.758-0.685c-1.632-1.491-2.982-2.767-4.05-3.829c-1.067-1.061-1.911-1.998-2.528-2.809
			c-0.619-0.811-1.05-1.545-1.296-2.201S0,5.195,0,4.531c0-1.271,0.432-2.34,1.296-3.204C2.16,0.463,3.229,0.031,4.5,0.031
			c0.879,0,1.705,0.225,2.475,0.675C7.746,1.156,8.42,1.811,9,2.67c0.58-0.859,1.254-1.514,2.025-1.963
			c0.77-0.45,1.596-0.675,2.475-0.675c1.271,0,2.34,0.432,3.204,1.296C17.568,2.191,18,3.26,18,4.531
			c0,0.664-0.123,1.324-0.368,1.98s-0.677,1.391-1.296,2.201c-0.617,0.811-1.457,1.748-2.519,2.809
			c-1.062,1.063-2.415,2.338-4.06,3.829L9,16.035z"/>
	</g>
</svg>
