<svg width="34" height="34" viewBox="0 0 34 34" fill="none" xmlns="http://www.w3.org/2000/svg">
<path d="M15.9067 18.0933L21.6669 18.0933C21.8627 18.0933 22.0358 18.1663 22.1863 18.3123C22.3368 18.4582 22.412 18.6336 22.412 18.8385C22.412 19.0434 22.3391 19.2188 22.1931 19.3647C22.0472 19.5107 21.8718 19.5836 21.6669 19.5836L15.3111 19.5836C15.1787 19.5836 15.0622 19.5605 14.9616 19.5143C14.861 19.4681 14.7681 19.4023 14.6829 19.3171C14.5976 19.2319 14.5319 19.139 14.4857 19.0384C14.4395 18.9377 14.4163 18.8212 14.4164 18.6889L14.4164 12.3331C14.4163 12.1373 14.4893 11.9641 14.6353 11.8137C14.7812 11.6632 14.9566 11.5879 15.1615 11.5879C15.3664 11.5879 15.5418 11.6609 15.6878 11.8069C15.8337 11.9528 15.9067 12.1282 15.9067 12.3331L15.9067 18.0933Z" fill="#888888"/>
</svg>
