<svg xmlns="http://www.w3.org/2000/svg" height="24" viewBox="0 -960 960 960" width="24"><path d="M621.308-303.461H473.539L366.692-196.615q-18.384 18.385-45.731 18.385-27.346 0-45.73-18.385L196.846-275q-18.385-18.385-18.385-45.846 0-27.462 18.385-45.846l106.615-105.847v-148.538l317.847 317.616Zm-96.847-40-181-181v68L225.154-338.154q-6.923 6.923-6.923 17.308 0 10.384 6.923 17.307l78.385 78.385q6.923 6.923 17.307 6.923 10.385 0 17.308-6.923l118.307-118.307h68ZM325.923-752.693q93.154-48 195.731-34.115 102.577 13.885 176.423 87.731 73.846 73.846 87.731 176.423 13.885 102.577-34.115 195.731l-30.308-29.538q38.077-79.693 24.192-165.808-13.885-86.116-76.038-148.27-62.154-62.153-148.27-76.038-86.115-13.885-165.808 24.192l-29.538-30.308Zm104.923 104.924q47-10.077 92.692 1.076 45.693 11.154 79.231 44.693 33.539 33.538 44.577 79.115 11.039 45.577.193 91.808l-34.154-34.154q1.538-30.384-7.885-58.5-9.423-28.115-31.039-49.73-21.846-21.847-49.961-31.77-28.115-9.923-58.731-6.846l-34.923-35.692Zm-60.538 277.461Z"/></svg>